<svg xmlns="http://www.w3.org/2000/svg" viewBox="0 0 64 64">
  <rect width="64" height="64" rx="14" fill="#0f766e"/>
  <path fill="#fff" d="M14.4 32.5 18 22.8A7 7 0 0 1 24.6 18h14.8a7 7 0 0 1 6.6 4.8l3.6 9.7A7 7 0 0 1 56 39.5V48h-6.2a7 7 0 0 1-13.6 0h-8.4a7 7 0 0 1-13.6 0H8v-8.5a7 7 0 0 1 6.4-7ZM20.7 31h22.6l-2.4-6.8A2.5 2.5 0 0 0 38.5 22h-13a2.5 2.5 0 0 0-2.4 2.2L20.7 31ZM21 49a3 3 0 1 0 0-6 3 3 0 0 0 0 6Zm22 0a3 3 0 1 0 0-6 3 3 0 0 0 0 6ZM12 42h40v-2.5a3 3 0 0 0-3-3H15a3 3 0 0 0-3 3V42Z"/>
</svg>
